<svg width="180" height="56" viewBox="0 0 180 56" fill="none" xmlns="http://www.w3.org/2000/svg">
<path d="M70.2 51.0757C66.024 51.0757 63.144 48.2722 63.144 43.8511V33.104H66.06V43.923C66.06 46.6906 67.716 48.2722 70.2 48.2722C72.684 48.2722 74.304 46.6906 74.304 43.923V33.104H77.22V43.8511C77.256 48.2722 74.34 51.0757 70.2 51.0757Z" fill="url(#paint0_linear_3_324)"/>
<path d="M80.7479 38.3517H83.4839V40.0411C84.2399 38.7831 85.6439 38.1001 87.2639 38.1001C90.1439 38.1001 92.016 40.1489 92.016 43.312V50.8242H89.28V43.7792C89.28 41.8023 88.2719 40.6162 86.688 40.6162C84.852 40.6162 83.4839 42.0539 83.4839 44.7138V50.8242H80.7479V38.3517Z" fill="url(#paint1_linear_3_324)"/>
<path d="M96.9481 35.62C95.9401 35.62 95.1121 34.7934 95.1121 33.7869C95.1121 32.7805 95.9761 31.9538 96.9481 31.9538C97.9561 31.9538 98.7841 32.7805 98.7841 33.7869C98.7841 34.7934 97.9921 35.62 96.9481 35.62ZM95.5801 38.3518H98.3161V50.8242H95.5801V38.3518Z" fill="url(#paint2_linear_3_324)"/>
<path d="M100.26 38.3517H103.32L107.1 47.0501L110.916 38.3517H114.012L108.324 50.7882H105.912L100.26 38.3517Z" fill="url(#paint3_linear_3_324)"/>
<path d="M121.104 51.0398C117.396 51.0398 114.732 48.3081 114.732 44.57C114.732 40.8678 117.288 38.1001 121.14 38.1001C124.956 38.1001 127.62 41.0116 127.368 45.2529H117.432C117.54 47.1579 118.98 48.6316 121.212 48.6316C122.58 48.6316 123.768 48.0924 124.344 46.8704H127.224C126.54 49.2067 124.272 51.0398 121.104 51.0398ZM117.54 43.276H124.416C123.984 41.2632 122.58 40.3646 121.032 40.3646C119.34 40.3646 117.936 41.371 117.54 43.276Z" fill="url(#paint4_linear_3_324)"/>
<path d="M130.212 38.3518H132.948V40.5803C133.416 39.1425 134.82 38.2439 136.224 38.2439C136.584 38.2439 136.908 38.2799 137.304 38.3518V41.1554C136.836 41.0116 136.44 40.9397 135.936 40.9397C134.352 40.9397 132.948 42.2696 132.948 44.7497V50.8242H130.212V38.3518Z" fill="url(#paint5_linear_3_324)"/>
<path d="M143.856 51.0398C140.94 51.0398 138.672 49.4942 138.528 47.0141H141.372C141.588 48.3441 142.704 48.8473 143.928 48.8473C145.116 48.8473 145.944 48.38 145.944 47.5174C145.944 46.6547 145.404 46.1874 144.108 45.864L142.056 45.3248C139.896 44.7856 138.852 43.3838 138.852 41.5507C138.852 39.466 140.688 38.0642 143.496 38.0642C146.196 38.0642 148.068 39.5738 148.248 41.8023H145.512C145.26 40.76 144.432 40.2568 143.46 40.2568C142.416 40.2568 141.624 40.724 141.624 41.5148C141.624 42.3055 142.236 42.7369 143.28 43.0244L145.368 43.5636C147.6 44.1387 148.68 45.4326 148.68 47.3376C148.752 49.7818 146.628 51.0398 143.856 51.0398Z" fill="url(#paint6_linear_3_324)"/>
<path d="M152.892 35.62C151.884 35.62 151.056 34.7934 151.056 33.7869C151.056 32.7805 151.92 31.9538 152.892 31.9538C153.9 31.9538 154.728 32.7805 154.728 33.7869C154.692 34.7934 153.9 35.62 152.892 35.62ZM151.488 38.3518H154.224V50.8242H151.488V38.3518Z" fill="url(#paint7_linear_3_324)"/>
<path d="M163.368 50.932C160.956 50.932 159.084 49.6021 159.084 46.7985V40.7959H156.492V38.3517H159.084V34.9012H161.82V38.3517H165.384V40.7959H161.82V46.3312C161.82 47.8768 162.504 48.4519 163.908 48.4519C164.448 48.4519 164.988 48.344 165.384 48.2003V50.6444C164.844 50.8241 164.196 50.932 163.368 50.932Z" fill="url(#paint8_linear_3_324)"/>
<path d="M168.984 56L171.648 50.1053L166.284 38.3517H169.308L173.124 47.1579L176.94 38.3517H180L172.008 56H168.984Z" fill="url(#paint9_linear_3_324)"/>
<path d="M87.4799 16.57C87.876 16.57 88.1999 16.8935 88.1999 17.2889V28C88.1999 28.3954 87.876 28.7189 87.4799 28.7189H84.2039V27.353C83.0879 28.6111 81.8279 29.1862 80.0639 29.1862C76.6079 29.1862 74.0879 26.5263 74.0879 22.8242C74.0879 18.9423 76.7519 16.1027 80.3879 16.1027C81.9359 16.1027 82.9799 16.6059 84.1679 17.8999V16.57H87.4799ZM78.3719 22.7523C78.3719 24.6213 79.632 26.0591 81.252 26.0591C82.908 26.0591 84.2399 24.5494 84.2399 22.7163C84.2399 20.7754 83.0159 19.4455 81.2879 19.4455C79.5599 19.4095 78.3719 20.7754 78.3719 22.7523Z" fill="white"/>
<path d="M109.584 16.57C109.98 16.57 110.304 16.8935 110.304 17.2889V28C110.304 28.3954 109.98 28.7189 109.584 28.7189H106.308V27.353C105.192 28.6111 103.932 29.1862 102.168 29.1862C98.7121 29.1862 96.1921 26.5263 96.1921 22.8242C96.1921 18.9423 98.8561 16.1027 102.492 16.1027C104.04 16.1027 105.084 16.6059 106.272 17.8999V16.57H109.584ZM100.476 22.7523C100.476 24.6213 101.736 26.0591 103.356 26.0591C105.012 26.0591 106.344 24.5494 106.344 22.7163C106.344 20.7754 105.12 19.4455 103.392 19.4455C101.7 19.4095 100.476 20.7754 100.476 22.7523Z" fill="white"/>
<path d="M65.448 11.2144V14.9884H68.472V21.3864C68.472 23.4352 68.256 23.8665 67.572 24.4056C67.104 24.7651 66.276 24.9807 65.376 24.9807H63.18V28.8986H64.692C65.916 28.8986 67.032 28.8626 67.932 28.7548C69.048 28.611 70.092 28.2157 70.92 27.4968C72.288 26.3825 72.72 24.8729 72.72 22.1053V11.9332C72.72 11.5379 72.396 11.2144 72 11.2144H65.448Z" fill="white"/>
<path d="M90.504 28.7189V11.2144H93.78C94.176 11.2144 94.5 11.5379 94.5 11.9332V28C94.5 28.3954 94.176 28.7189 93.78 28.7189H90.504Z" fill="white"/>
<path d="M35.568 0C34.38 0 33.408 0.970475 33.408 2.15661V25.3402C33.408 30.1926 30.672 33.104 26.064 33.104C21.492 33.104 18.756 30.1926 18.756 25.3402V22.0334C18.756 20.8472 17.784 19.8768 16.596 19.8768H11.88V25.2324C11.88 33.9307 17.604 39.7895 26.064 39.7895C34.596 39.7895 40.32 33.9307 40.32 25.2324V0H35.568Z" fill="url(#paint10_linear_3_324)"/>
<path d="M42.984 10.9987V24.837C42.984 35.7997 36.54 42.5931 26.136 42.5931C15.696 42.5931 9.216 35.7997 9.216 24.837V11.1065H2.016C0.9 11.1065 0 12.0051 0 13.1194V24.6932C0 40.724 10.512 51.4711 26.136 51.4711C41.724 51.4711 52.2 40.724 52.2 24.6932V13.0475C52.2 11.9332 51.3 11.0347 50.184 11.0347H42.984V10.9987Z" fill="url(#paint11_linear_3_324)"/>
<defs>
<linearGradient id="paint0_linear_3_324" x1="90" y1="33.4914" x2="90" y2="56" gradientUnits="userSpaceOnUse">
<stop stop-color="#00A1FF"/>
<stop offset="1" stop-color="#0053FF"/>
</linearGradient>
<linearGradient id="paint1_linear_3_324" x1="90" y1="33.4914" x2="90" y2="56" gradientUnits="userSpaceOnUse">
<stop stop-color="#00A1FF"/>
<stop offset="1" stop-color="#0053FF"/>
</linearGradient>
<linearGradient id="paint2_linear_3_324" x1="90" y1="33.4914" x2="90" y2="56" gradientUnits="userSpaceOnUse">
<stop stop-color="#00A1FF"/>
<stop offset="1" stop-color="#0053FF"/>
</linearGradient>
<linearGradient id="paint3_linear_3_324" x1="90" y1="33.4914" x2="90" y2="56" gradientUnits="userSpaceOnUse">
<stop stop-color="#00A1FF"/>
<stop offset="1" stop-color="#0053FF"/>
</linearGradient>
<linearGradient id="paint4_linear_3_324" x1="90" y1="33.4914" x2="90" y2="56" gradientUnits="userSpaceOnUse">
<stop stop-color="#00A1FF"/>
<stop offset="1" stop-color="#0053FF"/>
</linearGradient>
<linearGradient id="paint5_linear_3_324" x1="90" y1="33.4914" x2="90" y2="56" gradientUnits="userSpaceOnUse">
<stop stop-color="#00A1FF"/>
<stop offset="1" stop-color="#0053FF"/>
</linearGradient>
<linearGradient id="paint6_linear_3_324" x1="90" y1="33.4914" x2="90" y2="56" gradientUnits="userSpaceOnUse">
<stop stop-color="#00A1FF"/>
<stop offset="1" stop-color="#0053FF"/>
</linearGradient>
<linearGradient id="paint7_linear_3_324" x1="90" y1="33.4914" x2="90" y2="56" gradientUnits="userSpaceOnUse">
<stop stop-color="#00A1FF"/>
<stop offset="1" stop-color="#0053FF"/>
</linearGradient>
<linearGradient id="paint8_linear_3_324" x1="90" y1="33.4914" x2="90" y2="56" gradientUnits="userSpaceOnUse">
<stop stop-color="#00A1FF"/>
<stop offset="1" stop-color="#0053FF"/>
</linearGradient>
<linearGradient id="paint9_linear_3_324" x1="90" y1="33.4914" x2="90" y2="56" gradientUnits="userSpaceOnUse">
<stop stop-color="#00A1FF"/>
<stop offset="1" stop-color="#0053FF"/>
</linearGradient>
<linearGradient id="paint10_linear_3_324" x1="90" y1="0" x2="90" y2="56" gradientUnits="userSpaceOnUse">
<stop stop-color="#00A1FF"/>
<stop offset="1" stop-color="#0053FF"/>
</linearGradient>
<linearGradient id="paint11_linear_3_324" x1="90" y1="0" x2="90" y2="56" gradientUnits="userSpaceOnUse">
<stop stop-color="#00A1FF"/>
<stop offset="1" stop-color="#0053FF"/>
</linearGradient>
</defs>
</svg>
